# xmcd
#
# Track frame offsets:
#	182
#	20967
#	39482
#
# Disc length: 769 seconds
#
# Revision: 0
# Processed by: cddbd v1.4PL0 Copyright (c) Steve Scherf et al.
# Submitted via: EasyCDDAExtractor 4.6.9.1
#
DISCID=2102ff03
DTITLE=Michael W. Smith - I Will Be Here For You
DYEAR=1900
DGENRE=
TTITLE0=I Will Be Here For You(LP Version)
TTITLE1=I Will Be Here For You(Edit)
TTITLE2=I Will Be Here For You(AC Mix)
EXTD=
EXTT0=
EXTT1=
EXTT2=
PLAYORDER=
